<?xml version="1.0" encoding="UTF-8"?>
<svg version="1.1" xmlns="http://www.w3.org/2000/svg" width="225" height="225">
<path d="M0 0 C1.11470924 -0.01226624 1.11470924 -0.01226624 2.25193787 -0.02478027 C4.72231225 -0.04968295 7.19262892 -0.06616435 9.66308594 -0.08056641 C10.50543541 -0.08589008 11.34778488 -0.09121376 12.2156601 -0.09669876 C16.67582796 -0.12345406 21.13596762 -0.14281955 25.59619141 -0.15722656 C30.20444223 -0.17386248 34.8119762 -0.21862397 39.41995621 -0.26959801 C42.96131206 -0.30325677 46.50249773 -0.31480258 50.04399872 -0.32045364 C51.74248469 -0.32717213 53.44095924 -0.34240982 55.13928986 -0.36634445 C57.51923377 -0.39796568 59.89724491 -0.3980381 62.27734375 -0.390625 C62.97780319 -0.40703033 63.67826263 -0.42343567 64.39994812 -0.44033813 C68.27406952 -0.39101023 69.75410027 0.06966883 72.73602295 2.6322937 C73.44929749 3.47728424 74.16257202 4.32227478 74.89746094 5.19287109 C75.62449219 5.70527344 76.35152344 6.21767578 77.10058594 6.74560547 C80.20412047 9.08214053 82.45338688 11.26791488 83.35253906 15.16552734 C84.08159986 20.98781708 83.96515844 26.8364998 83.89746094 32.69287109 C83.90556084 34.48716191 83.91724544 36.28144034 83.93261719 38.07568359 C83.96232713 42.44902858 83.94320018 46.81969085 83.89746094 51.19287109 C78.5641276 53.19287109 73.23079427 55.19287109 67.89746094 57.19287109 C71.06021588 59.30137439 74.03217632 60.48117985 77.58496094 61.81787109 C78.76445312 62.26388672 79.94394531 62.70990234 81.15917969 63.16943359 C82.0628125 63.50716797 82.96644531 63.84490234 83.89746094 64.19287109 C83.95254274 69.45930354 83.9547877 74.72224041 83.90966797 79.98876953 C83.90159464 81.77717346 83.90755053 83.56570123 83.92822266 85.35400391 C84.08587512 100.23971506 84.08587512 100.23971506 81.15527344 105.05615234 C79.17154073 107.01445258 77.14848448 108.56153594 74.89746094 110.19287109 C74.37925781 110.89476562 73.86105469 111.59666016 73.32714844 112.31982422 C71.89746094 114.19287109 71.89746094 114.19287109 68.89746094 115.19287109 C66.41812577 115.28366066 63.96757114 115.31896359 61.48852539 115.30639648 C60.73706238 115.30654251 59.98559937 115.30668854 59.21136475 115.30683899 C56.72779452 115.30614238 54.24429931 115.29836177 51.76074219 115.29052734 C50.03867127 115.28866227 48.31659983 115.28723879 46.5945282 115.28623962 C42.06206803 115.2824215 37.5296399 115.2725972 32.99719238 115.26153564 C28.3721561 115.2513064 23.74711464 115.24673876 19.12207031 115.24169922 C10.04718644 115.23097432 0.97232635 115.21390632 -8.10253906 115.19287109 C-8.12586892 100.3463916 -8.14351866 85.49991453 -8.15435123 70.65342045 C-8.15951401 63.76039582 -8.16655635 56.86738256 -8.17797852 49.97436523 C-8.18898607 43.32840944 -8.19481528 36.6824624 -8.19741631 30.03649712 C-8.19927108 27.49464163 -8.20289267 24.95278683 -8.20826912 22.41093636 C-8.21547574 18.86435648 -8.21653016 15.3178262 -8.21606445 11.77124023 C-8.21965973 10.70885132 -8.223255 9.6464624 -8.22695923 8.55187988 C-8.22558456 7.59129166 -8.2242099 6.63070343 -8.22279358 5.64100647 C-8.22371537 4.80125306 -8.22463717 3.96149965 -8.22558689 3.09629917 C-7.93840878 -1.34606186 -3.46149513 0.02081104 0 0 Z M15.89746094 24.19287109 C15.89746094 46.30287109 15.89746094 68.41287109 15.89746094 91.19287109 C30.41746094 91.19287109 44.93746094 91.19287109 59.89746094 91.19287109 C59.89746094 80.63287109 59.89746094 70.07287109 59.89746094 59.19287109 C55.93746094 60.51287109 51.97746094 61.83287109 47.89746094 63.19287109 C47.89746094 68.80287109 47.89746094 74.41287109 47.89746094 80.19287109 C44.72016769 77.01557784 42.15662036 74.40892704 39.58496094 70.88037109 C39.07320312 70.18298828 38.56144531 69.48560547 38.03417969 68.76708984 C37.6590625 68.24759766 37.28394531 67.72810547 36.89746094 67.19287109 C36.14980469 67.39783203 35.40214844 67.60279297 34.63183594 67.81396484 C33.64699219 68.08337891 32.66214844 68.35279297 31.64746094 68.63037109 C30.67292969 68.89720703 29.69839844 69.16404297 28.69433594 69.43896484 C26.43373441 70.04831693 24.17124085 70.63525364 21.89746094 71.19287109 C24.01050266 67.52285126 26.35978204 64.23256926 29.00683594 60.93896484 C30.07529284 59.22548294 30.07529284 59.22548294 29.72558594 57.22802734 C28.75990535 54.85482175 27.51173437 53.17966917 25.89746094 51.19287109 C23.73858186 48.53578915 22.50306106 46.58423175 21.89746094 43.19287109 C23.23550781 43.76908203 23.23550781 43.76908203 24.60058594 44.35693359 C25.77105469 44.83904297 26.94152344 45.32115234 28.14746094 45.81787109 C29.30761719 46.30513672 30.46777344 46.79240234 31.66308594 47.29443359 C34.72474984 48.43322654 34.72474984 48.43322654 37.12792969 47.62646484 C39.30805741 45.8602245 40.51455177 44.03167753 41.95996094 41.63037109 C44.57102569 37.30168284 44.57102569 37.30168284 47.89746094 36.19287109 C47.89746094 41.47287109 47.89746094 46.75287109 47.89746094 52.19287109 C49.13496094 52.66724609 50.37246094 53.14162109 51.64746094 53.63037109 C52.34355469 53.89720703 53.03964844 54.16404297 53.75683594 54.43896484 C56.17866466 55.32940744 56.17866466 55.32940744 59.89746094 56.19287109 C59.89746094 45.63287109 59.89746094 35.07287109 59.89746094 24.19287109 C45.37746094 24.19287109 30.85746094 24.19287109 15.89746094 24.19287109 Z " fill="#F32625" transform="translate(77.1025390625,54.80712890625)"/>
<path d="M0 0 C1.11470924 -0.01226624 1.11470924 -0.01226624 2.25193787 -0.02478027 C4.72231225 -0.04968295 7.19262892 -0.06616435 9.66308594 -0.08056641 C10.50543541 -0.08589008 11.34778488 -0.09121376 12.2156601 -0.09669876 C16.67582796 -0.12345406 21.13596762 -0.14281955 25.59619141 -0.15722656 C30.20444223 -0.17386248 34.8119762 -0.21862397 39.41995621 -0.26959801 C42.96131206 -0.30325677 46.50249773 -0.31480258 50.04399872 -0.32045364 C51.74248469 -0.32717213 53.44095924 -0.34240982 55.13928986 -0.36634445 C57.51923377 -0.39796568 59.89724491 -0.3980381 62.27734375 -0.390625 C62.97780319 -0.40703033 63.67826263 -0.42343567 64.39994812 -0.44033813 C68.27406952 -0.39101023 69.75410027 0.06966883 72.73602295 2.6322937 C73.44929749 3.47728424 74.16257202 4.32227478 74.89746094 5.19287109 C75.62449219 5.70527344 76.35152344 6.21767578 77.10058594 6.74560547 C80.20412047 9.08214053 82.45338688 11.26791488 83.35253906 15.16552734 C84.08159986 20.98781708 83.96515844 26.8364998 83.89746094 32.69287109 C83.90556084 34.48716191 83.91724544 36.28144034 83.93261719 38.07568359 C83.96232713 42.44902858 83.94320018 46.81969085 83.89746094 51.19287109 C78.5641276 53.19287109 73.23079427 55.19287109 67.89746094 57.19287109 C69.38246094 58.18287109 69.38246094 58.18287109 70.89746094 59.19287109 C71.55746094 59.85287109 72.21746094 60.51287109 72.89746094 61.19287109 C68.66959218 62.81897446 67.86106303 61.84740512 62.89746094 60.19287109 C62.56746094 70.75287109 62.23746094 81.31287109 61.89746094 92.19287109 C61.23746094 92.19287109 60.57746094 92.19287109 59.89746094 92.19287109 C59.56746094 81.63287109 59.23746094 71.07287109 58.89746094 60.19287109 C55.26746094 61.18287109 51.63746094 62.17287109 47.89746094 63.19287109 C47.89746094 68.80287109 47.89746094 74.41287109 47.89746094 80.19287109 C43.69293415 78.0906077 42.67374576 76.85729832 40.14746094 73.06787109 C39.53386719 72.15779297 38.92027344 71.24771484 38.28808594 70.31005859 C37.59972656 69.26205078 37.59972656 69.26205078 36.89746094 68.19287109 C36.14980469 68.39783203 35.40214844 68.60279297 34.63183594 68.81396484 C33.64699219 69.08337891 32.66214844 69.35279297 31.64746094 69.63037109 C30.67292969 69.89720703 29.69839844 70.16404297 28.69433594 70.43896484 C26.43373441 71.04831693 24.17124085 71.63525364 21.89746094 72.19287109 C21.40246094 71.20287109 21.40246094 71.20287109 20.89746094 70.19287109 C21.4865625 69.44521484 22.07566406 68.69755859 22.68261719 67.92724609 C23.43414062 66.94240234 24.18566406 65.95755859 24.95996094 64.94287109 C25.7140625 63.96833984 26.46816406 62.99380859 27.24511719 61.98974609 C29.09239601 59.43123104 29.09239601 59.43123104 28.83496094 57.08349609 C27.35806623 54.10509176 25.28835354 51.73907583 23.17480469 49.19287109 C21.89746094 47.19287109 21.89746094 47.19287109 21.89746094 43.19287109 C22.56132813 43.39783203 23.22519531 43.60279297 23.90917969 43.81396484 C24.7921875 44.08337891 25.67519531 44.35279297 26.58496094 44.63037109 C27.45507812 44.89720703 28.32519531 45.16404297 29.22167969 45.43896484 C31.76772014 46.15631639 34.29780324 46.7104121 36.89746094 47.19287109 C37.44015625 46.39880859 37.98285156 45.60474609 38.54199219 44.78662109 C39.25742188 43.76568359 39.97285156 42.74474609 40.70996094 41.69287109 C41.41765625 40.67193359 42.12535156 39.65099609 42.85449219 38.59912109 C43.52867188 37.80505859 44.20285156 37.01099609 44.89746094 36.19287109 C45.88746094 36.19287109 46.87746094 36.19287109 47.89746094 36.19287109 C48.39246094 44.11287109 48.39246094 44.11287109 48.89746094 52.19287109 C52.85746094 53.51287109 56.81746094 54.83287109 60.89746094 56.19287109 C60.89746094 45.30287109 60.89746094 34.41287109 60.89746094 23.19287109 C61.22746094 23.19287109 61.55746094 23.19287109 61.89746094 23.19287109 C62.22746094 34.08287109 62.55746094 44.97287109 62.89746094 56.19287109 C66.85746094 54.87287109 70.81746094 53.55287109 74.89746094 52.19287109 C75.88746094 52.19287109 76.87746094 52.19287109 77.89746094 52.19287109 C77.95804687 50.90509766 78.01863281 49.61732422 78.08105469 48.29052734 C78.16544341 46.61212951 78.25009223 44.93374473 78.33496094 43.25537109 C78.37427734 42.40523437 78.41359375 41.55509766 78.45410156 40.67919922 C78.49599609 39.8703125 78.53789062 39.06142578 78.58105469 38.22802734 C78.6177124 37.4791626 78.65437012 36.73029785 78.69213867 35.95874023 C78.89746094 34.19287109 78.89746094 34.19287109 79.89746094 33.19287109 C80.23072769 30.12006731 80.22242551 27.03142179 80.27246094 23.94287109 C80.30984375 23.08306641 80.34722656 22.22326172 80.38574219 21.33740234 C80.4485148 16.81079927 80.37064724 14.8227258 77.57324219 11.09912109 C74.3713766 8.818084 72.74238768 8.85109983 68.89746094 9.19287109 C67.90746094 8.69787109 67.90746094 8.69787109 66.89746094 8.19287109 C64.58958219 8.10072478 62.27895244 8.07537712 59.96923828 8.0793457 C59.24540766 8.07922517 58.52157703 8.07910463 57.77581215 8.07898045 C55.42830986 8.07972798 53.08088656 8.08734896 50.73339844 8.09521484 C49.28588906 8.09668476 47.83837915 8.09770516 46.39086914 8.0982666 C41.01805831 8.10351376 35.64525885 8.11747492 30.27246094 8.13037109 C12.26683594 8.16130859 12.26683594 8.16130859 -6.10253906 8.19287109 C-6.10253906 42.84287109 -6.10253906 77.49287109 -6.10253906 113.19287109 C17.83183193 113.11366608 17.83183193 113.11366608 41.76611328 113.01269531 C46.39086914 113.00366211 46.39086914 113.00366211 48.55459595 113.00198364 C50.06868667 112.99890859 51.58277243 112.99186649 53.09683228 112.98171997 C55.3877211 112.96713244 57.67831014 112.96505733 59.96923828 112.96582031 C61.26163422 112.96137909 62.55403015 112.95693787 63.8855896 112.95236206 C66.89746094 113.19287109 66.89746094 113.19287109 68.89746094 115.19287109 C43.48746094 115.19287109 18.07746094 115.19287109 -8.10253906 115.19287109 C-8.14270273 86.74360598 -8.14270273 86.74360598 -8.15279293 72.73948193 C-8.15834464 65.15110337 -8.1654041 57.56273575 -8.17797852 49.97436523 C-8.18898607 43.32840944 -8.19481528 36.6824624 -8.19741631 30.03649712 C-8.19927108 27.49464163 -8.20289267 24.95278683 -8.20826912 22.41093636 C-8.21547574 18.86435648 -8.21653016 15.3178262 -8.21606445 11.77124023 C-8.21965973 10.70885132 -8.223255 9.6464624 -8.22695923 8.55187988 C-8.22558456 7.59129166 -8.2242099 6.63070343 -8.22279358 5.64100647 C-8.22371537 4.80125306 -8.22463717 3.96149965 -8.22558689 3.09629917 C-7.93840878 -1.34606186 -3.46149513 0.02081104 0 0 Z " fill="#F02626" transform="translate(77.1025390625,54.80712890625)"/>
<path d="M0 0 C1.07461739 0.00539291 1.07461739 0.00539291 2.17094421 0.01089478 C2.92211517 0.01074875 3.67328613 0.01060272 4.44721985 0.01045227 C6.94166404 0.01115153 9.43603448 0.01894452 11.9304657 0.02676392 C13.65539509 0.02862805 15.38032501 0.03005197 17.10525513 0.03105164 C21.65418448 0.03487719 26.20308211 0.04470779 30.7519989 0.05575562 C35.39025951 0.06596893 40.02852522 0.07054908 44.66679382 0.07559204 C53.77422967 0.08633003 62.88164192 0.1034069 71.98905945 0.12442017 C71.32905945 1.44442017 70.66905945 2.76442017 69.98905945 4.12442017 C69.49405945 3.62942017 69.49405945 3.62942017 68.98905945 3.12442017 C66.75048589 3.00030434 64.50800461 2.94638993 62.26615906 2.9190979 C61.55236115 2.90906518 60.83856325 2.89903246 60.10313511 2.88869572 C57.7825913 2.85720452 55.46203047 2.83249608 53.1414032 2.80801392 C51.71272714 2.78962025 50.28405671 2.77078411 48.85539246 2.75149536 C43.54584811 2.68293108 38.2361957 2.62295309 32.92655945 2.56192017 C15.13749695 2.34535767 15.13749695 2.34535767 -3.01094055 2.12442017 C-3.34094055 38.75442017 -3.67094055 75.38442017 -4.01094055 113.12442017 C19.92343044 113.04521515 19.92343044 113.04521515 43.85771179 112.94424438 C48.48246765 112.93521118 48.48246765 112.93521118 50.64619446 112.93353271 C52.16028518 112.93045767 53.67437094 112.92341556 55.18843079 112.91326904 C57.47931961 112.89868151 59.76990865 112.8966064 62.06083679 112.89736938 C63.35323273 112.89292816 64.64562866 112.88848694 65.97718811 112.88391113 C68.98905945 113.12442017 68.98905945 113.12442017 70.98905945 115.12442017 C45.57905945 115.12442017 20.16905945 115.12442017 -6.01094055 115.12442017 C-6.05110422 86.67515505 -6.05110422 86.67515505 -6.06119442 72.671031 C-6.06674613 65.08265244 -6.07380559 57.49428482 -6.08638 49.90591431 C-6.09738755 43.25995852 -6.10321677 36.61401148 -6.10581779 29.96804619 C-6.10767256 27.4261907 -6.11129416 24.8843359 -6.11667061 22.34248543 C-6.12387722 18.79590555 -6.12493165 15.24937527 -6.12446594 11.70278931 C-6.12806122 10.64040039 -6.13165649 9.57801147 -6.13536072 8.48342896 C-6.13398605 7.52284073 -6.13261139 6.5622525 -6.13119507 5.57255554 C-6.13211686 4.73280213 -6.13303865 3.89304873 -6.13398838 3.02784824 C-5.88030521 -0.89637918 -3.32810968 0.00704649 0 0 Z " fill="#D72225" transform="translate(75.01094055175781,54.875579833984375)"/>
<path d="M0 0 C0.33 0 0.66 0 1 0 C1.33 10.89 1.66 21.78 2 33 C5.96 31.68 9.92 30.36 14 29 C14.99 29 15.98 29 17 29 C17.33 23.06 17.66 17.12 18 11 C18.66 10.67 19.32 10.34 20 10 C20.04898438 10.85464844 20.09796875 11.70929688 20.1484375 12.58984375 C20.22320312 13.69457031 20.29796875 14.79929687 20.375 15.9375 C20.44460937 17.03964844 20.51421875 18.14179687 20.5859375 19.27734375 C20.72257812 20.17582031 20.85921875 21.07429688 21 22 C21.66 22.33 22.32 22.66 23 23 C23 24.65 23 26.3 23 28 C17.66666667 30 12.33333333 32 7 34 C7.99 34.66 8.98 35.32 10 36 C10.66 36.66 11.32 37.32 12 38 C7.77213125 39.62610337 6.96360209 38.65453403 2 37 C1.67 47.23 1.34 57.46 1 68 C0.67 68 0.34 68 0 68 C-0.33 57.11 -0.66 46.22 -1 35 C-1.66 34.67 -2.32 34.34 -3 34 C-2.67 33.34 -2.34 32.68 -2 32 C-1.34 32.33 -0.68 32.66 0 33 C0 22.11 0 11.22 0 0 Z " fill="#D02020" transform="translate(138,78)"/>
<path d="M0 0 C0.66 0 1.32 0 2 0 C1.67 23.1 1.34 46.2 1 70 C0.34 70 -0.32 70 -1 70 C-1.02312566 61.02079223 -1.04091623 52.04159463 -1.05181217 43.06236362 C-1.05704051 38.89337172 -1.06413726 34.72440013 -1.07543945 30.55541992 C-1.08627008 26.53542314 -1.09227721 22.51544595 -1.09487724 18.49543571 C-1.09673118 16.95837025 -1.10035119 15.42130591 -1.10573006 13.88424873 C-1.11294284 11.73864513 -1.11399084 9.59312345 -1.11352539 7.44750977 C-1.115746 6.22395279 -1.11796661 5.00039581 -1.12025452 3.73976135 C-1 1 -1 1 0 0 Z " fill="#B42125" transform="translate(92,77)"/>
<path d="M0 0 C1.60597325 0.45196245 3.20972508 0.91182327 4.8125 1.375 C6.15248047 1.75785156 6.15248047 1.75785156 7.51953125 2.1484375 C10 3 10 3 13 5 C8.78984129 5.95685425 6.74287627 6.13181214 3 4 C3.77537109 4.85271484 3.77537109 4.85271484 4.56640625 5.72265625 C9.88254795 11.95429789 9.88254795 11.95429789 10.2421875 15.15625 C9.9375 17.0625 9.9375 17.0625 9 20 C8.01 20.33 7.02 20.66 6 21 C6.33 21.66 6.66 22.32 7 23 C7.99 23.33 8.98 23.66 10 24 C3.71428571 28.42857143 3.71428571 28.42857143 0 29 C-0.33 28.34 -0.66 27.68 -1 27 C-0.41089844 26.25234375 0.17820312 25.5046875 0.78515625 24.734375 C1.53667969 23.74953125 2.28820312 22.7646875 3.0625 21.75 C3.81660156 20.77546875 4.57070312 19.8009375 5.34765625 18.796875 C7.19493508 16.23835995 7.19493508 16.23835995 6.9375 13.890625 C5.46060529 10.91222066 3.3908926 8.54620473 1.27734375 6 C0 4 0 4 0 0 Z " fill="#D42025" transform="translate(99,98)"/>
<path d="M0 0 C0.33 0 0.66 0 1 0 C1.9100998 22.73185789 1.98927453 45.26911832 1 68 C0.67 68 0.34 68 0 68 C-0.33 57.11 -0.66 46.22 -1 35 C-1.66 34.67 -2.32 34.34 -3 34 C-2.67 33.34 -2.34 32.68 -2 32 C-1.34 32.33 -0.68 32.66 0 33 C0 22.11 0 11.22 0 0 Z " fill="#A41D22" transform="translate(138,78)"/>
<path d="M0 0 C1.98 0.66 3.96 1.32 6 2 C6 2.66 6 3.32 6 4 C6.99 4.33 7.98 4.66 9 5 C9.33 16.22 9.66 27.44 10 39 C9.34 39 8.68 39 8 39 C7.67 28.44 7.34 17.88 7 7 C5.68 7.33 4.36 7.66 3 8 C2.67 7.34 2.34 6.68 2 6 C2.66 6 3.32 6 4 6 C4 5.01 4 4.02 4 3 C2.68 2.67 1.36 2.34 0 2 C0 1.34 0 0.68 0 0 Z " fill="#DA2223" transform="translate(129,108)"/>
<path d="M0 0 C0.33 0 0.66 0 1 0 C1.29151881 5.05248534 1.54269795 10.10477558 1.75683594 15.16113281 C1.83530974 16.88042247 1.92474677 18.59924839 2.02539062 20.31738281 C2.16827649 22.78930833 2.27149655 25.26022843 2.3671875 27.734375 C2.42002899 28.50118591 2.47287048 29.26799683 2.52731323 30.05804443 C2.58935547 32.24121094 2.58935547 32.24121094 2 36 C-1.02294922 38.51660156 -1.02294922 38.51660156 -4 40 C-3.67 38.68 -3.34 37.36 -3 36 C-2.34 36 -1.68 36 -1 36 C-0.67 24.12 -0.34 12.24 0 0 Z " fill="#FB2432" transform="translate(158,120)"/>
<path d="M0 0 C0 0.66 0 1.32 0 2 C-1.65 2.33 -3.3 2.66 -5 3 C-5 8.61 -5 14.22 -5 20 C-9.5 17.75 -9.5 17.75 -11 14 C-10.01 14.33 -9.02 14.66 -8 15 C-7.67 10.71 -7.34 6.42 -7 2 C-2 0 -2 0 0 0 Z " fill="#B11D22" transform="translate(130,115)"/>
<path d="M0 0 C1.60597325 0.45196245 3.20972508 0.91182327 4.8125 1.375 C6.15248047 1.75785156 6.15248047 1.75785156 7.51953125 2.1484375 C10 3 10 3 13 5 C9.31615192 5.94237974 7.6607211 6.36039333 4.25 4.5 C3.5075 4.005 2.765 3.51 2 3 C1.01 3.495 1.01 3.495 0 4 C0 2.68 0 1.36 0 0 Z " fill="#B11B1D" transform="translate(99,98)"/>
<path d="M0 0 C1.98 0.66 3.96 1.32 6 2 C6 2.66 6 3.32 6 4 C6.99 4.33 7.98 4.66 9 5 C8.67 6.32 8.34 7.64 8 9 C7.67 8.34 7.34 7.68 7 7 C5.68 7.33 4.36 7.66 3 8 C2.67 7.34 2.34 6.68 2 6 C2.66 6 3.32 6 4 6 C4 5.01 4 4.02 4 3 C2.68 2.67 1.36 2.34 0 2 C0 1.34 0 0.68 0 0 Z " fill="#BE1D23" transform="translate(129,108)"/>
<path d="M0 0 C0.33 0.99 0.66 1.98 1 3 C3.50447516 4.21869929 3.50447516 4.21869929 6 5 C4.375 6.125 4.375 6.125 2 7 C-1.25 6.125 -1.25 6.125 -4 5 C-4 3.68 -4 2.36 -4 1 C-2 0 -2 0 0 0 Z " fill="#D72329" transform="translate(144,110)"/>
<path d="M0 0 C0.99 0 1.98 0 3 0 C2.67 5.28 2.34 10.56 2 16 C1.67 16 1.34 16 1 16 C0.67 12.04 0.34 8.08 0 4 C-0.99 4 -1.98 4 -3 4 C-1.6875 2 -1.6875 2 0 0 Z " fill="#AE2226" transform="translate(122,91)"/>
<path d="M0 0 C0.66 0.33 1.32 0.66 2 1 C-1.66666667 4.66666667 -5.33333333 8.33333333 -9 12 C-9 9 -9 9 -7.03125 6.73828125 C-5.77828125 5.53751953 -5.77828125 5.53751953 -4.5 4.3125 C-3.6646875 3.50425781 -2.829375 2.69601563 -1.96875 1.86328125 C-1.3190625 1.24839844 -0.669375 0.63351563 0 0 Z " fill="#CF2027" transform="translate(158,156)"/>
<path d="M0 0 C0.66 0.66 1.32 1.32 2 2 C1.01 3.175625 1.01 3.175625 0 4.375 C-2.20201441 6.71512812 -2.20201441 6.71512812 -2 9 C-3.65 9 -5.3 9 -7 9 C-6.34 8.67 -5.68 8.34 -5 8 C-4.31513275 6.67592331 -3.65129797 5.34090759 -3 4 C-2.02418241 2.64886795 -1.02970259 1.31053056 0 0 Z " fill="#FB222C" transform="translate(151,160)"/>
<path d="M0 0 C0.99 0.33 1.98 0.66 3 1 C4.1875 3.5625 4.1875 3.5625 5 6 C4.34 6 3.68 6 3 6 C2.34 5.01 1.68 4.02 1 3 C-1.05925139 2.27617533 -1.05925139 2.27617533 -3 2 C-2.01 1.34 -1.02 0.68 0 0 Z " fill="#B72223" transform="translate(113,120)"/>
<path d="M0 0 C1.98362069 2.91708924 1.9876191 4.12380904 1.625 7.75 C1.41875 8.8225 1.2125 9.895 1 11 C0.67 11 0.34 11 0 11 C-0.12375 9.865625 -0.2475 8.73125 -0.375 7.5625 C-0.58125 6.386875 -0.7875 5.21125 -1 4 C-1.66 3.67 -2.32 3.34 -3 3 C-2.67 2.34 -2.34 1.68 -2 1 C-1.34 1.33 -0.68 1.66 0 2 C0 1.34 0 0.68 0 0 Z " fill="#96201D" transform="translate(138,109)"/>
</svg>
